<svg xmlns="http://www.w3.org/2000/svg" viewBox="0 0 900 390" role="img" aria-label="A four-step repair path. A cold-water symbol leads to The shower isn&#x27;t working, then to Could you send someone, please, and finally to room 214 in about ten minutes.">
<rect width="900" height="390" fill="white"/>
<g fill="none" stroke="#111" stroke-width="4" stroke-linecap="round" stroke-linejoin="round">
<rect x="28" y="120" width="185" height="126"/><rect x="247" y="120" width="185" height="126"/><rect x="466" y="120" width="185" height="126"/><rect x="685" y="120" width="185" height="126"/>
<path d="M213 183h34m185 0h34m185 0h34"/><path d="m235 172 12 11-12 11m219-22 12 11-12 11m219-22 12 11-12 11"/>
<path d="M95 152c18 16 18 33 0 49-18-16-18-33 0-49"/><path d="M130 151v54m-18-27h36"/>
<path d="M713 270h130"/><path d="M778 246v48"/>
</g>
<g fill="#111" font-family="system-ui,sans-serif" text-anchor="middle">
<text x="450" y="52" font-size="30" font-weight="700">FROM PROBLEM TO PLAN</text>
<text x="120" y="100" font-size="21" font-weight="700">OBSERVE</text><text x="120" y="226" font-size="20">no hot water</text>
<text x="340" y="100" font-size="21" font-weight="700">REPORT</text><text x="340" y="169" font-size="18">The shower</text><text x="340" y="198" font-size="18">isn't working.</text>
<text x="558" y="100" font-size="21" font-weight="700">REQUEST</text><text x="558" y="169" font-size="18">Could you send</text><text x="558" y="198" font-size="18">someone, please?</text>
<text x="778" y="100" font-size="21" font-weight="700">CONFIRM</text><text x="778" y="169" font-size="18">room 214</text><text x="778" y="198" font-size="18">about 10 minutes</text>
<text x="450" y="345" font-size="22">Specific evidence makes the request easier to act on.</text>
</g></svg>