<svg xmlns="http://www.w3.org/2000/svg" viewBox="0 0 900 360" role="img" aria-label="A four-part sentence map shows permission, action and object, place, and time limit: Could I | leave my bag | here | until three?">
<rect width="900" height="360" fill="white"/><g fill="none" stroke="#111" stroke-width="4"><rect x="25" y="120" width="190" height="110"/><rect x="245" y="120" width="250" height="110"/><rect x="525" y="120" width="150" height="110"/><rect x="705" y="120" width="170" height="110"/><path d="M215 175h30M495 175h30M675 175h30"/><path d="m233 164 12 11-12 11m280-22 12 11-12 11m180-22 12 11-12 11"/></g><g fill="#111" font-family="system-ui,sans-serif" text-anchor="middle"><text x="450" y="55" font-size="28" font-weight="700">BUILD THE REQUEST</text><text x="120" y="155" font-size="20" font-weight="700">PERMISSION</text><text x="120" y="195" font-size="24">Could I</text><text x="370" y="155" font-size="20" font-weight="700">ACTION + OBJECT</text><text x="370" y="195" font-size="24">leave my bag</text><text x="600" y="155" font-size="20" font-weight="700">PLACE</text><text x="600" y="195" font-size="24">here</text><text x="790" y="155" font-size="20" font-weight="700">TIME LIMIT</text><text x="790" y="195" font-size="24">until three?</text><text x="450" y="300" font-size="20">Could I + base verb + object + place + until + time?</text></g></svg>